<svg xmlns="http://www.w3.org/2000/svg" width="0" height="0">
    <defs>
        <svg id="account" xmlns="http://www.w3.org/2000/svg">
            <path
                d="M12 0c-6.627 0-12 5.373-12 12s5.373 12 12 12 12-5.373 12-12-5.373-12-12-12zm7.753 18.305c-.261-.586-.789-.991-1.871-1.241-2.293-.529-4.428-.993-3.393-2.945 3.145-5.942.833-9.119-2.489-9.119-3.388 0-5.644 3.299-2.489 9.119 1.066 1.964-1.148 2.427-3.393 2.945-1.084.25-1.608.658-1.867 1.246-1.405-1.723-2.251-3.919-2.251-6.31 0-5.514 4.486-10 10-10s10 4.486 10 10c0 2.389-.845 4.583-2.247 6.305z" />
        </svg>
        <svg id="heart" clip-rule="evenodd" fill-rule="evenodd" stroke-linejoin="round"
            stroke-miterlimit="2"
            viewBox="0 0 24 24" xmlns="http://www.w3.org/2000/svg">
            <path
                d="m12 5.72c-2.624-4.517-10-3.198-10 2.461 0 3.725 4.345 7.727 9.303 12.54.194.189.446.283.697.283s.503-.094.697-.283c4.977-4.831 9.303-8.814 9.303-12.54 0-5.678-7.396-6.944-10-2.461z"
                fill-rule="nonzero" />
        </svg>
        <svg id="cart" xmlns="http://www.w3.org/2000/svg">
            <path
                d="M10 20.5c0 .829-.672 1.5-1.5 1.5s-1.5-.671-1.5-1.5c0-.828.672-1.5 1.5-1.5s1.5.672 1.5 1.5zm3.5-1.5c-.828 0-1.5.671-1.5 1.5s.672 1.5 1.5 1.5 1.5-.671 1.5-1.5c0-.828-.672-1.5-1.5-1.5zm6.304-17l-3.431 14h-2.102l2.541-11h-16.812l4.615 13h13.239l3.474-14h2.178l.494-2h-4.196z" />
        </svg>
        <svg id="facebook" xmlns="http://www.w3.org/2000/svg">
            <path
                d="M12 2c5.514 0 10 4.486 10 10s-4.486 10-10 10-10-4.486-10-10 4.486-10 10-10zm0-2c-6.627 0-12 5.373-12 12s5.373 12 12 12 12-5.373 12-12-5.373-12-12-12zm-2 10h-2v2h2v6h3v-6h1.82l.18-2h-2v-.833c0-.478.096-.667.558-.667h1.442v-2.5h-2.404c-1.798 0-2.596.792-2.596 2.308v1.692z" />
        </svg>
        <svg id="twitter" xmlns="http://www.w3.org/2000/svg">
            <path
                d="M24 4.557c-.883.392-1.832.656-2.828.775 1.017-.609 1.798-1.574 2.165-2.724-.951.564-2.005.974-3.127 1.195-.897-.957-2.178-1.555-3.594-1.555-3.179 0-5.515 2.966-4.797 6.045-4.091-.205-7.719-2.165-10.148-5.144-1.29 2.213-.669 5.108 1.523 6.574-.806-.026-1.566-.247-2.229-.616-.054 2.281 1.581 4.415 3.949 4.89-.693.188-1.452.232-2.224.084.626 1.956 2.444 3.379 4.6 3.419-2.07 1.623-4.678 2.348-7.29 2.04 2.179 1.397 4.768 2.212 7.548 2.212 9.142 0 14.307-7.721 13.995-14.646.962-.695 1.797-1.562 2.457-2.549z" />
        </svg>
        <svg id="telegram" version="1.1" xmlns="http://www.w3.org/2000/svg"
            style="fill-rule:evenodd;clip-rule:evenodd;stroke-linejoin:round;stroke-miterlimit:1.41421;">
            <path id="telegram-4"
                d="M12,0c-6.626,0 -12,5.372 -12,12c0,6.627 5.374,12 12,12c6.627,0 12,-5.373 12,-12c0,-6.628 -5.373,-12 -12,-12Zm3.224,17.871c0.188,0.133 0.43,0.166 0.646,0.085c0.215,-0.082 0.374,-0.267 0.422,-0.491c0.507,-2.382 1.737,-8.412 2.198,-10.578c0.035,-0.164 -0.023,-0.334 -0.151,-0.443c-0.129,-0.109 -0.307,-0.14 -0.465,-0.082c-2.446,0.906 -9.979,3.732 -13.058,4.871c-0.195,0.073 -0.322,0.26 -0.316,0.467c0.007,0.206 0.146,0.385 0.346,0.445c1.381,0.413 3.193,0.988 3.193,0.988c0,0 0.847,2.558 1.288,3.858c0.056,0.164 0.184,0.292 0.352,0.336c0.169,0.044 0.348,-0.002 0.474,-0.121c0.709,-0.669 1.805,-1.704 1.805,-1.704c0,0 2.084,1.527 3.266,2.369Zm-6.423,-5.062l0.98,3.231l0.218,-2.046c0,0 3.783,-3.413 5.941,-5.358c0.063,-0.057 0.071,-0.153 0.019,-0.22c-0.052,-0.067 -0.148,-0.083 -0.219,-0.037c-2.5,1.596 -6.939,4.43 -6.939,4.43Z" />
        </svg>
        <svg id="instagram" xmlns="http://www.w3.org/2000/svg">
            <path
                d="M12 2.163c3.204 0 3.584.012 4.85.07 3.252.148 4.771 1.691 4.919 4.919.058 1.265.069 1.645.069 4.849 0 3.205-.012 3.584-.069 4.849-.149 3.225-1.664 4.771-4.919 4.919-1.266.058-1.644.07-4.85.07-3.204 0-3.584-.012-4.849-.07-3.26-.149-4.771-1.699-4.919-4.92-.058-1.265-.07-1.644-.07-4.849 0-3.204.013-3.583.07-4.849.149-3.227 1.664-4.771 4.919-4.919 1.266-.057 1.645-.069 4.849-.069zm0-2.163c-3.259 0-3.667.014-4.947.072-4.358.2-6.78 2.618-6.98 6.98-.059 1.281-.073 1.689-.073 4.948 0 3.259.014 3.668.072 4.948.2 4.358 2.618 6.78 6.98 6.98 1.281.058 1.689.072 4.948.072 3.259 0 3.668-.014 4.948-.072 4.354-.2 6.782-2.618 6.979-6.98.059-1.28.073-1.689.073-4.948 0-3.259-.014-3.667-.072-4.947-.196-4.354-2.617-6.78-6.979-6.98-1.281-.059-1.69-.073-4.949-.073zm0 5.838c-3.403 0-6.162 2.759-6.162 6.162s2.759 6.163 6.162 6.163 6.162-2.759 6.162-6.163c0-3.403-2.759-6.162-6.162-6.162zm0 10.162c-2.209 0-4-1.79-4-4 0-2.209 1.791-4 4-4s4 1.791 4 4c0 2.21-1.791 4-4 4zm6.406-11.845c-.796 0-1.441.645-1.441 1.44s.645 1.44 1.441 1.44c.795 0 1.439-.645 1.439-1.44s-.644-1.44-1.439-1.44z" />
        </svg>
        <svg id="location" xmlns="http://www.w3.org/2000/svg">
            <path d="M0 9l24-9-8.986 24-3.014-12z" />
        </svg>
        <svg id="phone" xmlns="http://www.w3.org/2000/svg">
            <path
                d="M19 2c0-1.104-.896-2-2-2h-10c-1.104 0-2 .896-2 2v20c0 1.104.896 2 2 2h10c1.104 0 2-.896 2-2v-20zm-8.5 0h3c.276 0 .5.224.5.5s-.224.5-.5.5h-3c-.276 0-.5-.224-.5-.5s.224-.5.5-.5zm1.5 20c-.553 0-1-.448-1-1s.447-1 1-1c.552 0 .999.448.999 1s-.447 1-.999 1zm5-3h-10v-14.024h10v14.024z" />
        </svg>
        <svg id="mail" xmlns="http://www.w3.org/2000/svg">
            <path
                d="M.026 24l11.974-11.607 11.974 11.607h-23.948zm11.964-23.961l-11.99 8.725v12.476l7.352-7.127-5.653-4.113 10.291-7.488 10.309 7.488-5.655 4.108 7.356 7.132v-12.476l-12.01-8.725z" />
        </svg>
        <svg id="form-button" clip-rule="evenodd" fill-rule="evenodd" stroke-linejoin="round"
            stroke-miterlimit="2"
            xmlns="http://www.w3.org/2000/svg">
            <path
                d="m10.211 7.155c-.141-.108-.3-.157-.456-.157-.389 0-.755.306-.755.749v8.501c0 .445.367.75.755.75.157 0 .316-.05.457-.159 1.554-1.203 4.199-3.252 5.498-4.258.184-.142.29-.36.29-.592 0-.23-.107-.449-.291-.591-1.299-1.002-3.945-3.044-5.498-4.243z" />
        </svg>
        <svg id="bag" xmlns="http://www.w3.org/2000/svg">
            <path
                d="M6 23.73l-3-2.122v-14.2l3 1.359v14.963zm2-14.855v15.125l13-1.954v-15.046l-13 1.875zm5.963-7.875c-2.097 0-3.958 2.005-3.962 4.266l-.001 1.683c0 .305.273.54.575.494.244-.037.425-.247.425-.494v-1.681c.003-1.71 1.416-3.268 2.963-3.268.537 0 1.016.195 1.384.564.422.423.654 1.035.653 1.727v1.747c0 .305.273.54.575.494.243-.037.423-.246.423-.492l.002-1.749c.002-1.904-1.32-3.291-3.037-3.291zm-6.39 5.995c.245-.037.427-.247.427-.495v-2.232c.002-1.71 1.416-3.268 2.963-3.268l.162.015c.366-.283.765-.513 1.188-.683-.405-.207-.858-.332-1.35-.332-2.096 0-3.958 2.005-3.962 4.266v2.235c0 .306.272.538.572.494z" />
        </svg>
        <svg id="reset" clip-rule="evenodd" fill-rule="evenodd" stroke-linejoin="round"
            stroke-miterlimit="2" xmlns="http://www.w3.org/2000/svg">
            <path
                d="m12.002 2.005c5.518 0 9.998 4.48 9.998 9.997 0 5.518-4.48 9.998-9.998 9.998-5.517 0-9.997-4.48-9.997-9.998 0-5.517 4.48-9.997 9.997-9.997zm0 1.5c-4.69 0-8.497 3.807-8.497 8.497s3.807 8.498 8.497 8.498 8.498-3.808 8.498-8.498-3.808-8.497-8.498-8.497zm0 7.425 2.717-2.718c.146-.146.339-.219.531-.219.404 0 .75.325.75.75 0 .193-.073.384-.219.531l-2.717 2.717 2.727 2.728c.147.147.22.339.22.531 0 .427-.349.75-.75.75-.192 0-.384-.073-.53-.219l-2.729-2.728-2.728 2.728c-.146.146-.338.219-.53.219-.401 0-.751-.323-.751-.75 0-.192.073-.384.22-.531l2.728-2.728-2.722-2.722c-.146-.147-.219-.338-.219-.531 0-.425.346-.749.75-.749.192 0 .385.073.531.219z"
                fill-rule="nonzero" />
        </svg>
    </defs>
</svg>